<svg
    xmlns="http://www.w3.org/2000/svg"
    viewBox="0 0 24 24"
    id="vector">
    <path
        id="path_1"
        d="M 3.5 10.685 L 3.5 8.457 L 5.728 8.457 L 5.728 10.685 Z M 3.5 20 L 3.5 17.772 L 5.728 17.772 L 5.728 20 Z"
        fill="#000000"
        stroke="#00000000"/>
    <path
        id="path_2"
        d="M 8.879 10.685 L 8.879 8.457 L 11.107 8.457 L 11.107 10.685 Z M 8.879 20 L 8.879 17.772 L 11.107 17.772 L 11.107 20 Z"
        fill="#000000"
        stroke="#00000000"/>
    <path
        id="path_3"
        d="M 20.54 20 L 18.584 20 L 18.584 7.533 C 18.113 7.982 17.495 8.431 16.731 8.88 C 15.966 9.33 15.28 9.667 14.671 9.891 L 14.671 8 C 15.765 7.486 16.721 6.862 17.54 6.13 C 18.359 5.399 18.939 4.688 19.279 4 L 20.54 4 Z"
        fill="#000000"
        stroke="#00000000"/>
</svg>
