<svg
    xmlns="http://www.w3.org/2000/svg"
    viewBox="0 0 24 24"
    id="vector">
    <g
        id="group_1"
        transform="translate(12 12) scale(0.6 0.6) translate(-12 -12)">
        <path
            id="path"
            d="M 3 13 L 5 13 L 5 11 L 3 11 L 3 13 Z M 3 17 L 5 17 L 5 15 L 3 15 L 3 17 Z M 3 9 L 5 9 L 5 7 L 3 7 L 3 9 Z M 7 13 L 21 13 L 21 11 L 7 11 L 7 13 Z M 7 17 L 21 17 L 21 15 L 7 15 L 7 17 Z M 7 7 L 7 9 L 21 9 L 21 7 L 7 7 Z"
            fill="#000000"/>
    </g>
</svg>
