<svg
    xmlns="http://www.w3.org/2000/svg"
    viewBox="0 0 24 24"
    id="vector">
    <path
        id="path_1"
        d="M 14.94 4.66 L 10.22 4.66 L 12.58 2.3 Z M 10.25 19.37 L 14.91 19.37 L 12.58 21.7 Z M 6.1 6.27 L 1.6 17.73 L 3.44 17.73 L 4.36 15.28 L 9.47 15.28 L 10.39 17.73 L 12.23 17.73 L 7.74 6.27 L 6.1 6.27 Z M 4.97 13.64 L 6.91 8.46 L 8.85 13.64 L 4.97 13.64 Z M 15.73 16.14 L 21.85 16.14 L 21.85 17.73 L 13.32 17.73 L 13.32 16.44 L 19.24 7.88 L 13.36 7.88 L 13.36 6.28 L 21.66 6.28 L 21.66 7.54 L 15.73 16.14 Z"
        fill="#c7c7c7"/>
</svg>
