<svg
    xmlns="http://www.w3.org/2000/svg"
    viewBox="0 0 24 24"
    id="vector">
    <path
        id="path"
        d="M 19.35 10.04 C 18.67 6.59 15.64 4 12 4 C 9.11 4 6.6 5.64 5.35 8.04 C 2.34 8.36 0 10.91 0 14 C 0 17.31 2.69 20 6 20 L 19 20 C 21.76 20 24 17.76 24 15 C 24 12.36 21.95 10.22 19.35 10.04 Z M 19 18 L 6 18 C 3.79 18 2 16.21 2 14 C 2 11.95 3.53 10.24 5.56 10.03 L 6.63 9.92 L 7.13 8.97 C 8.08 7.14 9.94 6 12 6 C 14.62 6 16.88 7.86 17.39 10.43 L 17.69 11.93 L 19.22 12.04 C 20.78 12.14 22 13.45 22 15 C 22 16.65 20.65 18 19 18 Z M 8 13 L 10.55 13 L 10.55 16 L 13.45 16 L 13.45 13 L 16 13 L 12 9 Z"
        fill="#c7c7c7"/>
</svg>
