<svg
    xmlns="http://www.w3.org/2000/svg"
    viewBox="0 0 32 32"
    id="vector">
    <path
        id="path_1"
        d="M 26.939 8.129 C 27.329 5.64 26.936 3.946 25.59 2.412 C 24.108 0.723 21.43 -0.001 18.003 -0.001 L 8.058 -0.001 C 7.358 -0.001 6.761 0.508 6.652 1.2 L 2.511 27.462 C 2.429 27.98 2.83 28.448 3.354 28.448 L 9.494 28.448 L 9.07 31.136 C 8.999 31.589 9.349 31.999 9.808 31.999 L 14.983 31.999 C 15.596 31.999 16.117 31.553 16.213 30.948 L 16.264 30.685 L 17.238 24.502 L 17.301 24.161 C 17.397 23.556 17.918 23.11 18.531 23.11 L 19.305 23.11 C 24.319 23.11 28.245 21.073 29.392 15.182 C 29.871 12.72 29.623 10.666 28.355 9.221 C 27.972 8.785 27.495 8.424 26.939 8.129 L 26.939 8.129"
        fill="#ffffff"
        fill-opacity="0.68000036"
        stroke-opacity="0.68000036"/>
    <path
        id="path_2"
        d="M 26.939 8.129 C 27.329 5.64 26.936 3.946 25.59 2.412 C 24.108 0.723 21.43 -0.001 18.003 -0.001 L 8.058 -0.001 C 7.358 -0.001 6.761 0.508 6.652 1.2 L 2.511 27.462 C 2.429 27.98 2.83 28.448 3.354 28.448 L 9.494 28.448 L 11.036 18.668 L 10.988 18.975 C 11.097 18.283 11.688 17.773 12.389 17.773 L 15.307 17.773 C 21.039 17.773 25.526 15.445 26.837 8.711 C 26.877 8.512 26.909 8.319 26.939 8.129"
        fill="#ffffff"
        fill-opacity="0.7"
        stroke-opacity="0.7"/>
    <path
        id="path_3"
        d="M 12.693 8.162 C 12.759 7.746 13.026 7.405 13.386 7.233 C 13.549 7.155 13.732 7.111 13.923 7.111 L 21.719 7.111 C 22.643 7.111 23.504 7.172 24.291 7.299 C 24.516 7.335 24.735 7.377 24.948 7.424 C 25.16 7.471 25.367 7.524 25.567 7.582 C 25.667 7.611 25.765 7.642 25.862 7.674 C 26.248 7.803 26.609 7.954 26.94 8.13 C 27.33 5.64 26.937 3.946 25.591 2.412 C 24.108 0.723 21.43 -0.001 18.003 -0.001 L 8.058 -0.001 C 7.358 -0.001 6.761 0.508 6.652 1.2 L 2.511 27.462 C 2.429 27.98 2.83 28.448 3.354 28.448 L 9.494 28.449 L 11.036 18.668 L 12.693 8.162 Z"
        fill="#ffffff"/>
</svg>
