<?xml version="1.0" encoding="utf-8"?>
<!-- Generator: Adobe Illustrator 27.0.0, SVG Export Plug-In . SVG Version: 6.00 Build 0)  -->
<svg version="1.1" id="a" xmlns="http://www.w3.org/2000/svg" xmlns:xlink="http://www.w3.org/1999/xlink" x="0px" y="0px"
	 viewBox="0 0 22.9 22.9" style="enable-background:new 0 0 22.9 22.9;" xml:space="preserve">
<style type="text/css">
	.st0{fill:#CA1235;}
</style>
<g>
	<g>
		<g>
			<polygon class="st0" points="4.9,18.3 4.9,4.6 7,2.3 9.1,0 6.7,0 0,6.7 0,16.2 6.7,22.9 9.1,22.9 7.1,20.7 			"/>
			<polygon class="st0" points="13.9,23 13.9,22.9 13.9,22.9 			"/>
			<path class="st0" d="M13.8,12.7c0-0.5-0.2-0.9-0.3-1.2c-0.2-0.3-0.4-0.5-0.7-0.6s-0.7-0.2-1.3-0.2c-0.4,0-0.8,0.1-1.2,0.2
				C10,11,9.6,11.2,9.1,11.5v11.5h4.8v-6.5C13.9,13.7,13.9,13.2,13.8,12.7z"/>
			<path class="st0" d="M16.2,0H9.1v11.5c0.7-0.6,1.9-1.9,2.4-2.4c0.6-0.6,1.7-1.8,2.1-1.8c1.4,0,2.5,0.4,3.3,1.2s1.2,2.1,1.2,3.7
				c0,0,0,3.5,0,6L16,20.7l-2.1,2.3h2.3l6.7-6.7V6.7L16.2,0z"/>
		</g>
	</g>
</g>
</svg>
