<?xml version="1.0" encoding="UTF-8"?><svg id="a" xmlns="http://www.w3.org/2000/svg" width="22.94" height="22.94" viewBox="0 0 22.94 22.94"><defs><style>.b{fill:#c03;}.c{fill:#ca1235;}</style></defs><path class="b" d="M16.22,0H6.72L0,6.72v9.5l6.72,6.72h9.5l6.72-6.72V6.72L16.22,0Zm1.91,20.78h-4.23v-6.53c0-.53-.03-1.06-.08-1.59s-.15-.92-.28-1.17c-.16-.29-.38-.5-.69-.63s-.72-.2-1.26-.2c-.38,0-.77,.06-1.17,.19s-.82,.32-1.28,.6v9.33H4.91V2.55h4.23v6.53c.75-.59,1.47-1.04,2.16-1.35s1.46-.47,2.3-.47c1.42,0,2.53,.41,3.33,1.24,.8,.83,1.2,2.07,1.2,3.71v8.57Z"/><path class="c" d="M15.39,2l5.55,5.55v7.84l-5.55,5.55H7.55L2,15.39V7.55L7.55,2h7.84M16.22,0H6.72L0,6.72v9.5l6.72,6.72h9.5l6.72-6.72V6.72L16.22,0h0Z"/></svg>